<?xml version="1.0" encoding="UTF-8"?>
<svg width="1280px" height="55px" viewBox="0 0 1280 55" version="1.1" xmlns="http://www.w3.org/2000/svg" xmlns:xlink="http://www.w3.org/1999/xlink">
    <title>2154993</title>
    <g id="Page-1" stroke="none" stroke-width="1" fill="none" fill-rule="evenodd">
        <g id="2154993" transform="translate(0.067185, 0.114414)" fill="#000000" fill-rule="nonzero">
            <g id="Group" transform="translate(639.893728, 27.442793) scale(-1, 1) rotate(-180.000000) translate(-639.893728, -27.442793) translate(0.000000, 0.000000)">
                <path d="M605.232815,53.5 C594.632815,50.5 582.632815,43.3 567.632815,30.8 C564.432815,28.2 561.432815,26 561.032815,26 C560.532815,26 559.932815,28.9 559.732815,32.4 C559.032815,40.1 555.932815,46.4 551.032815,49.7 C544.632815,54.1 533.732815,51.9 529.832815,45.6 C527.432815,41.7 527.432815,38.3 529.832815,34.7 C532.932815,29.9 535.532815,28.7 541.032815,29.4 C543.732815,29.8 545.932815,29.8 545.932815,29.5 C545.932815,29.2 545.232815,27.6 544.432815,26.1 C540.732815,18.8 530.832815,15 520.732815,16.9 C511.932815,18.5 504.232815,21.9 499.332815,26.3 C495.232815,30.1 494.632815,31.1 494.232815,35.6 C493.732815,40.2 493.932815,40.9 496.432815,42.8 C500.132815,45.7 505.332815,45.7 507.432815,42.8 C508.232815,41.5 509.232815,38.8 509.632815,36.7 C510.232815,32.4 511.132815,31.6 513.932815,32.5 C515.532815,33 515.932815,34 515.932815,38.1 C515.932815,43.8 514.132815,47.9 510.332815,50.9 C508.232815,52.5 506.232815,53 501.232815,53 C495.432815,53 494.432815,52.7 491.932815,50.1 C490.132815,48.3 488.332815,44.9 487.332815,41.1 C486.332815,37.8 485.032815,35 484.332815,35 C483.732815,35 477.032815,38.1 469.632815,41.9 C446.032815,53.8 449.232815,53.4 381.432815,53.4 C325.932815,53.3 323.032815,53.2 314.432815,51.2 C303.932815,48.7 292.732815,44.9 277.432815,38.7 C266.532815,34.2 254.532815,31.1 253.232815,32.4 C252.332815,33.2 254.032815,36.1 256.032815,37.2 C256.832815,37.6 259.132815,38.6 261.232815,39.4 C264.432815,40.7 264.932815,41.3 264.932815,44 C264.932815,46.3 264.332815,47.3 262.732815,47.9 C257.832815,49.7 250.132815,45.3 242.932815,36.6 C239.132815,31.9 238.032815,31.2 235.932815,31.7 C231.532815,32.7 224.832815,35.9 221.732815,38.5 C220.132815,39.9 218.032815,41 217.032815,41 C216.032815,41 213.232815,39 210.632815,36.5 L206.032815,31.9 L115.732815,32.2 C22.6328154,32.5 12.1328154,32.2 3.23281538,28.4 C-0.267184617,27 -1.06718462,24.6 1.53281538,23.6 C2.43281538,23.3 41.9328154,23 89.3328154,23 C136.832815,23 182.532815,22.7 191.032815,22.4 L206.432815,21.7 L210.032815,17.9 C212.032815,15.7 214.532815,14 215.532815,14 C216.632815,14 219.132815,15.4 221.132815,17 C226.232815,21.2 232.732815,24 237.632815,24 C241.532815,24 242.032815,23.6 245.032815,19.4 C254.832815,5.1 277.932815,6.8 317.532815,24.8 C330.032815,30.4 333.432815,31.3 340.132815,30.4 L344.932815,29.7 L342.732815,26.1 C337.932815,18.5 340.832815,5.9 347.932815,3 C350.432815,1.9 351.732815,2 355.332815,3.4 C363.532815,6.5 365.932815,14.3 361.532815,23.3 C360.132815,26.3 358.932815,29.4 358.932815,30.3 C358.932815,32.6 367.332815,38.6 373.332815,40.6 C380.532815,43 391.432815,42.1 400.932815,38.3 C409.932815,34.6 410.932815,32.6 404.732815,31 C391.332815,27.6 385.932815,23 385.932815,15 C385.932815,8.5 392.732815,2 399.432815,2 C405.332815,2 412.432815,7 411.732815,10.7 C411.332815,12.6 409.532815,12.8 400.732815,11.5 C396.232815,10.8 396.032815,10.9 395.332815,13.4 C394.532815,16.9 397.432815,21.8 401.932815,24.1 C408.532815,27.7 416.932815,26.3 438.232815,18.4 C453.932815,12.5 476.732815,5.8 489.932815,3 C524.232815,-4 543.932815,1.7 575.432815,28 C594.632815,44 602.232815,47.5 615.932815,46.7 C630.832815,45.9 639.532815,40 630.032815,37.2 C624.832815,35.6 621.632815,32.9 617.032815,26.1 C611.532815,18 606.632815,14 602.432815,14 C598.632815,14 597.832815,15.2 599.132815,19.5 C601.032815,26.1 597.532815,31 591.132815,31 C584.632815,31 580.932815,26.6 580.932815,18.8 C581.032815,8.8 588.932815,2 600.632815,2 C607.232815,2 616.832815,4.6 622.632815,8 L625.832815,9.9 L633.632815,6.4 C637.932815,4.6 642.432815,3 643.632815,3 C644.832815,3 648.832815,4.5 652.432815,6.4 L659.032815,9.8 L666.232815,6.7 C679.932815,0.9 695.332815,2 701.332815,9.1 C707.332815,16.2 706.932815,26.2 700.632815,30 C692.232815,35.1 684.932815,28.8 687.632815,18.8 C688.632815,15 688.632815,15 685.732815,15 C681.532815,15 679.432815,16.4 670.732815,24.6 C664.532815,30.5 658.832815,34.8 651.132815,39.6 C650.932815,39.8 651.032815,40.8 651.432815,42 C652.432815,45.1 659.332815,48 666.132815,48 C676.832815,48 689.132815,41.7 711.732815,24.6 C729.632815,11.1 733.432815,8.9 748.532815,3.5 C757.232815,0.3 759.132815,0 768.832815,0 C794.932815,0 813.732815,4.4 862.432815,22 C873.932815,26.1 880.732815,26.5 884.332815,23.1 C887.232815,20.3 887.832815,15.6 885.532815,12.4 C884.432815,10.9 882.832815,10.5 878.232815,10.5 C873.332815,10.5 872.432815,10.2 872.132815,8.6 C871.532815,5.6 874.732815,4 880.832815,4 C893.432815,4 899.632815,14.5 892.732815,24.3 C890.232815,27.8 885.932815,30 878.932815,31.5 L873.432815,32.6 L878.432815,35.8 C894.332815,46.1 914.332815,46.7 924.932815,37.2 L929.232815,33.4 L925.532815,29.9 C923.432815,28 921.132815,25.3 920.332815,23.8 C918.432815,20.1 918.532815,13.4 920.632815,9.9 C922.332815,7 927.332815,4 930.432815,4 C932.832815,4 937.132815,6.5 939.932815,9.5 C942.232815,12 942.432815,12.9 942.332815,21.1 C942.132815,29.9 942.232815,30 944.532815,30 C948.332815,30 958.732815,26.2 966.432815,22.1 C978.432815,15.6 986.732815,12.9 999.932815,11 C1013.83282,9 1029.03282,13.2 1036.33282,20.9 C1040.53282,25.2 1044.33282,25 1052.83282,20 C1056.53282,17.8 1060.83282,16 1062.33282,16 C1063.83282,16 1067.93282,17.8 1071.53282,19.9 C1076.63282,23 1079.53282,24 1084.73282,24.6 C1088.43282,25 1133.63282,25.1 1185.13282,24.8 L1278.93282,24.3 L1279.53282,27.7 C1279.93282,29.6 1279.83282,31.4 1279.43282,31.8 C1279.03282,32.2 1236.83282,32.5 1185.63282,32.5 C1089.53282,32.5 1080.73282,32.8 1070.63282,36.6 C1062.63282,39.6 1060.23282,39.6 1055.83282,36.1 C1050.53282,31.8 1045.33282,29.7 1042.43282,30.7 C1041.13282,31.1 1038.63282,33.8 1036.73282,36.5 C1032.33282,43.2 1027.63282,45.5 1018.33282,45.5 C1010.83282,45.5 1007.93282,44.2 1007.93282,40.9 C1007.93282,39.1 1008.53282,39 1014.93282,39.6 C1022.73282,40.4 1026.93282,39.2 1029.43282,35.4 C1031.43282,32.2 1031.33282,30.3 1028.93282,29.5 C1025.33282,28.4 1012.43282,30.9 1000.93282,35 C967.132815,47.1 929.232815,53.4 889.432815,53.4 C853.532815,53.5 836.932815,50.4 812.732815,38.9 C803.332815,34.5 797.332815,32.2 796.732815,32.8 C796.232815,33.3 795.432815,36.2 795.032815,39.3 C794.632815,42.3 793.532815,45.9 792.732815,47.2 C790.232815,51 784.432815,53.3 779.132815,52.7 C773.632815,52.1 770.032815,49.5 767.532815,44.5 C765.332815,40 766.232815,37.7 770.232815,37.2 C772.432815,36.9 773.332815,37.6 775.032815,40.5 C778.032815,45.6 780.132815,46.4 783.332815,43.9 C787.832815,40.3 788.532815,32 784.632815,26.9 C783.132815,24.9 772.932815,18.3 769.232815,16.9 C753.832815,11.1 737.132815,16.4 734.432815,28.1 L733.732815,30.8 L741.232815,30.6 C750.532815,30.5 752.932815,32.1 752.932815,38.6 C752.932815,43.6 749.432815,48.5 744.232815,50.6 C733.332815,55.2 723.232815,47.7 721.432815,33.5 C721.032815,30.3 720.332815,28 719.632815,28 C718.232815,28 713.532815,31.2 702.432815,39.5 C692.832815,46.7 682.632815,51.5 672.832815,53.6 C663.432815,55.5 659.332815,54.9 649.132815,49.7 L640.832815,45.5 L637.632815,47.4 C625.132815,54.7 615.732815,56.5 605.232815,53.5 Z M362.932815,44.6 C362.932815,42.7 361.732815,41.5 357.532815,39.1 C351.632815,35.7 348.032815,35.3 338.532815,37.1 C329.532815,38.7 316.232815,35.3 289.932815,24.4 C280.232815,20.4 277.132815,19.6 270.332815,19.2 C265.532815,18.9 260.732815,19.2 258.632815,19.9 C254.932815,21.1 252.232815,23.6 253.232815,24.7 C253.632815,25 258.232815,26.3 263.632815,27.6 C269.032815,28.9 281.632815,32.7 291.532815,36 C317.232815,44.4 329.732815,46.9 348.232815,46.9 L362.932815,47 L362.932815,44.6 Z M436.932815,45.4 C450.132815,42.9 461.132815,38.5 483.132815,26.9 C510.932815,12.3 512.532815,11.6 522.732815,11.8 C527.232815,11.8 531.932815,12.2 532.932815,12.5 C535.532815,13.3 535.532815,11.4 532.932815,10 C531.832815,9.4 527.332815,8.4 522.932815,7.8 C504.832815,5.3 486.532815,10.2 445.132815,28.9 C434.032815,33.9 421.132815,39.2 416.632815,40.6 C407.032815,43.6 405.732815,44.2 405.132815,45.8 C404.532815,47.6 426.932815,47.3 436.932815,45.4 Z M874.932815,45.1 C874.932815,43.9 874.032815,42.9 872.732815,42.4 C871.432815,42.1 858.732815,36.6 844.432815,30.3 C811.332815,15.6 806.532815,13.7 794.932815,10.7 C782.232815,7.3 777.632815,6.7 772.932815,7.5 C767.232815,8.5 767.932815,10.4 774.832815,13 C778.132815,14.2 783.832815,17 787.632815,19.2 C803.132815,28.3 826.232815,39 838.432815,42.7 C846.832815,45.3 856.932815,46.8 866.232815,46.9 C874.232815,47 874.932815,46.8 874.932815,45.1 Z M944.432815,45 C956.432815,43.5 973.732815,39.1 991.132815,33 C999.032815,30.2 1009.73282,27.3 1014.93282,26.4 C1025.53282,24.6 1028.73282,22.8 1025.43282,20.4 C1022.93282,18.5 1017.33282,17 1012.93282,17 C1007.63282,17 1000.33282,19.1 981.932815,26 C963.732815,32.8 951.832815,36 944.632815,36 C938.632815,36 933.932815,37.9 931.132815,41.5 C927.932815,45.5 928.332815,47 932.232815,46.5 C933.932815,46.2 939.532815,45.6 944.432815,45 Z M1065.13282,30.3 C1067.43282,28.2 1067.43282,26.3 1064.93282,25 C1062.53282,23.7 1057.93282,24.7 1057.93282,26.6 C1057.93282,28 1061.33282,32 1062.63282,32 C1062.93282,32 1064.13282,31.3 1065.13282,30.3 Z M222.432815,28.6 C224.032815,27.4 224.132815,27 223.032815,25.6 C221.332815,23.6 216.532815,23.5 214.932815,25.5 C212.132815,28.9 218.432815,31.6 222.432815,28.6 Z M934.432815,24.9 C935.532815,21.6 934.032815,16.1 931.832815,14.9 C928.432815,13.1 926.932815,14.5 926.932815,19.4 C926.932815,22.9 927.432815,24.2 929.132815,25.4 C932.132815,27.6 933.632815,27.4 934.432815,24.9 Z M353.932815,21.9 C354.532815,20.9 354.932815,18.5 354.932815,16.6 C354.932815,13.5 354.632815,13 352.532815,13 C350.332815,13 349.932815,13.6 349.332815,17.5 C349.032815,20 348.932815,22.6 349.332815,23.5 C350.032815,25.3 352.632815,24.4 353.932815,21.9 Z" id="Shape"></path>
            </g>
        </g>
    </g>
</svg>