<?xml version="1.0" encoding="UTF-8"?>
<svg width="370px" height="494px" viewBox="0 0 370 494" version="1.1" xmlns="http://www.w3.org/2000/svg" xmlns:xlink="http://www.w3.org/1999/xlink">
    <title>london-light</title>
    <g id="Page-1" stroke="none" stroke-width="1" fill="none" fill-rule="evenodd">
        <g id="london-light" transform="translate(0.191664, 0.599200)" fill="#DDDDDD" fill-rule="nonzero">
            <path d="M185.098336,325.7908 C209.133336,325.7908 228.696336,306.2358 228.696336,282.2008 C228.696336,258.1658 209.141336,238.6108 185.098336,238.6108 C161.063336,238.6108 141.508336,258.1658 141.508336,282.2008 C141.508336,306.2358 161.063336,325.7908 185.098336,325.7908 L185.098336,325.7908 Z M185.098336,249.8068 C202.961336,249.8068 217.493336,264.3378 217.493336,282.1978 C217.493336,300.0578 202.962336,314.5888 185.098336,314.5888 C167.239336,314.5888 152.707336,300.0578 152.707336,282.1978 C152.707336,264.3378 167.238336,249.8068 185.098336,249.8068 Z M175.156936,284.3418 C175.156936,281.0723 176.762436,278.1856 179.211636,276.373 L179.211636,261.717 C179.211636,258.6193 181.719436,256.1154 184.813236,256.1154 C187.903036,256.1154 190.414836,258.6193 190.414836,261.717 L190.414836,275.971 C193.188236,277.7366 195.039836,280.8187 195.039836,284.3421 C195.039836,289.8226 190.582836,294.2835 185.098436,294.2835 C179.617936,294.279594 175.156936,289.8226 175.156936,284.3421 L175.156936,284.3418 Z M254.234936,140.4618 C251.367736,139.2352 248.098236,140.547737 246.871636,143.3798 C245.645036,146.2196 246.949761,149.5126 249.789636,150.7431 C314.762636,178.8601 358.409636,242.0591 358.409636,308.0031 C358.409636,384.7331 305.628636,451.7431 235.209636,473.8731 L235.20573,347.2031 L246.40473,347.2031 C249.50243,347.2031 252.00633,344.6992 252.00633,341.6015 L252.00633,229.6015 L263.20533,229.6015 C266.30303,229.6015 268.80693,227.0937 268.80693,223.9999 L268.80693,207.1989 C268.80693,204.1091 266.30303,201.5973 263.20533,201.5973 L246.40433,201.5973 L246.40433,179.1993 C249.50203,179.1993 252.00593,176.6915 252.00593,173.5977 C252.00593,170.5079 249.50203,167.9961 246.40433,167.9961 L237.52543,167.9961 L216.75943,147.2381 C215.71643,146.1912 214.29463,145.6014 212.80633,145.6014 L212.80633,123.2034 C212.849299,123.207307 212.892268,123.2034 212.91961,123.2034 C216.01731,123.2034 218.52121,120.6956 218.52121,117.6018 C218.52121,116.3206 218.09543,115.1448 217.37281,114.1956 L190.69281,60.8436 L190.69281,5.6016 C190.69281,2.5118 188.18891,0 185.09121,0 C181.99351,0 179.48961,2.5078 179.48961,5.6016 L179.48961,59.7036 L151.79061,115.0986 C150.92342,116.833 151.01717,118.8955 152.0367,120.5478 C153.064,122.1962 154.8648,123.204 156.8062,123.204 L156.8062,145.602 C155.3218,145.602 153.896,146.19184 152.8453,147.2426 L132.0873,168.0046 L123.2045,168.0046 C120.1147,168.0046 117.6029,170.5124 117.6029,173.6062 C117.6029,176.696 120.1107,179.2078 123.2045,179.2078 L123.2045,201.6058 L106.4035,201.6058 C103.3137,201.6058 100.8019,204.1136 100.8019,207.2074 L100.8019,224.0084 C100.8019,227.0982 103.3097,229.61 106.4035,229.61 L117.6025,229.61 L117.6025,341.61 C117.6025,344.7077 120.1103,347.2116 123.2041,347.2116 L134.4031,347.2116 L134.4031,473.7616 C63.9581,451.4996 11.2031,384.5936 11.2031,308.0116 C11.2031,242.1326 54.8551,178.9416 119.8331,150.7416 C122.6729,149.5111 123.9698,146.2104 122.7433,143.3783 C121.5128,140.5463 118.2081,139.2338 115.38,140.4681 C46.368,170.4021 0,237.7301 0,308.0081 C0,408.1781 84.762,492.8081 185.09,492.8081 C286.84,492.8081 369.61,409.9021 369.61,308.0081 C369.61,237.6601 323.247,170.3381 254.23,140.4681 L254.234936,140.4618 Z M184.812936,74.1258 L203.750936,112.0048 L165.871936,112.0048 L184.812936,74.1258 Z M168.011936,123.2038 L201.613936,123.2038 L201.613936,145.6018 L168.011936,145.6018 L168.011936,123.2038 Z M159.133036,156.8018 L210.496036,156.8018 L221.695036,168.0008 L147.929036,168.004706 L159.133036,156.8018 Z M134.414036,179.2038 L235.214036,179.2038 L235.214036,201.6018 L134.414036,201.6018 L134.414036,179.2038 Z M112.012036,212.8018 L257.612036,212.8018 L257.612036,218.4034 L112.012036,218.4034 L112.012036,212.8018 Z M128.813036,229.6028 L240.813036,229.6028 L240.813036,336.0028 L229.618036,336.0028 L140.016036,335.9403 C139.910566,335.9403 139.820726,335.994988 139.715256,336.0028 L128.813036,336.006706 L128.813036,229.6028 Z M145.614036,347.2028 L224.012036,347.2028 L224.012036,476.0028 C224.012036,476.3153 224.140946,476.59264 224.191726,476.89343 C220.437826,477.79968 216.648726,478.59653 212.812726,479.24503 L212.812726,425.60003 C212.812726,422.50233 210.308826,419.99843 207.211126,419.99843 C204.113426,419.99843 201.609526,422.50233 201.609526,425.60003 L201.609526,480.75603 C197.906426,481.12712 194.168126,481.33806 190.410526,481.46306 L190.414432,425.60006 C190.414432,422.50236 187.906632,419.99846 184.812832,419.99846 C181.723032,419.99846 179.211232,422.50236 179.211232,425.60006 L179.211232,481.44406 C175.453432,481.31125 171.711232,481.0964 168.012232,480.7175 L168.012232,425.6005 C168.012232,422.5028 165.504432,419.9989 162.410632,419.9989 C159.320832,419.9989 156.809032,422.5028 156.809032,425.6005 L156.809032,479.1475 C153.035632,478.49906 149.305132,477.7178 145.610032,476.8233 L145.614036,347.2028 Z M201.61403,408.8008 L201.61403,355.6288 C201.61403,352.5311 204.117936,350.0272 207.215636,350.0272 C210.313336,350.0272 212.817236,352.5311 212.817236,355.6288 L212.81333,408.8008 C212.81333,411.8985 210.30943,414.4024 207.21173,414.4024 C204.11793,414.4024 201.61403,411.8985 201.61403,408.8008 L201.61403,408.8008 Z M179.212036,408.8008 L179.212036,355.6288 C179.212036,352.5311 181.719836,350.0272 184.813636,350.0272 C187.903436,350.0272 190.415236,352.5311 190.415236,355.6288 L190.415236,408.8008 C190.415236,411.8985 187.907436,414.4024 184.813636,414.4024 C181.723836,414.4024 179.212036,411.8985 179.212036,408.8008 L179.212036,408.8008 Z M156.81403,408.8008 L156.81403,355.6288 C156.81403,352.5311 159.321836,350.0272 162.415636,350.0272 C165.505436,350.0272 168.017236,352.5311 168.017236,355.6288 L168.01333,408.8008 C168.01333,411.8985 165.50553,414.4024 162.41173,414.4024 C159.32193,414.4024 156.81403,411.8985 156.81403,408.8008 L156.81403,408.8008 Z M224.013036,186.4808 L224.013036,194.2777 C224.013036,197.3675 221.509136,199.8793 218.411436,199.8793 C215.313736,199.8793 212.809836,197.3715 212.809836,194.2777 L212.809836,186.4808 C212.809836,183.391 215.313736,180.8792 218.411436,180.8792 C221.509136,180.8792 224.013036,183.3909 224.013036,186.4808 Z M207.212036,186.4808 L207.212036,194.2777 C207.212036,197.3675 204.708136,199.8793 201.610436,199.8793 C198.512736,199.8793 196.008836,197.3715 196.008836,194.2777 L196.008836,186.4808 C196.008836,183.391 198.512736,180.8792 201.610436,180.8792 C204.712036,180.8792 207.212036,183.3909 207.212036,186.4808 Z M190.415036,186.4808 L190.415036,194.2777 C190.415036,197.3675 187.907236,199.8793 184.813436,199.8793 C181.723636,199.8793 179.211836,197.3715 179.211836,194.2777 L179.211836,186.4808 C179.211836,183.391 181.719636,180.8792 184.813436,180.8792 C187.903236,180.8792 190.415036,183.3909 190.415036,186.4808 Z M173.614036,186.4808 L173.614036,194.2777 C173.614036,197.3675 171.106236,199.8793 168.012436,199.8793 C164.922636,199.8793 162.410836,197.3715 162.410836,194.2777 L162.410836,186.4808 C162.410836,183.391 164.918636,180.8792 168.012436,180.8792 C171.106236,180.8792 173.614036,183.3909 173.614036,186.4808 Z M156.813036,186.4808 L156.813036,194.2777 C156.813036,197.3675 154.305236,199.8793 151.211436,199.8793 C148.121636,199.8793 145.609836,197.3715 145.609836,194.2777 L145.609836,186.4808 C145.609836,183.391 148.117636,180.8792 151.211436,180.8792 C154.305236,180.8792 156.813036,183.3909 156.813036,186.4808 Z" id="Shape"></path>
        </g>
    </g>
</svg>